<?xml version="1.0" encoding="utf-8"?>
<!-- Generator: Adobe Illustrator 24.0.2, SVG Export Plug-In . SVG Version: 6.00 Build 0)  -->
<svg version="1.1" id="Layer_1" xmlns="http://www.w3.org/2000/svg" xmlns:xlink="http://www.w3.org/1999/xlink" x="0px" y="0px"
	 width="16px" height="16px" viewBox="0 0 16 16" style="enable-background:new 0 0 16 16;" xml:space="preserve">
<style type="text/css">
	.st0{fill:#FFFFFF;}
</style>
<path class="st0" d="M3.5,4h-3C0.2,4,0,3.8,0,3.5v-3C0,0.2,0.2,0,0.5,0h3C3.8,0,4,0.2,4,0.5v3C4,3.8,3.8,4,3.5,4z"/>
<path class="st0" d="M9.5,4h-3C6.2,4,6,3.8,6,3.5v-3C6,0.2,6.2,0,6.5,0h3C9.8,0,10,0.2,10,0.5v3C10,3.8,9.8,4,9.5,4z"/>
<path class="st0" d="M15.5,4h-3C12.2,4,12,3.8,12,3.5v-3C12,0.2,12.2,0,12.5,0h3C15.8,0,16,0.2,16,0.5v3C16,3.8,15.8,4,15.5,4z"/>
<path class="st0" d="M3.5,10h-3C0.2,10,0,9.8,0,9.5v-3C0,6.2,0.2,6,0.5,6h3C3.8,6,4,6.2,4,6.5v3C4,9.8,3.8,10,3.5,10z"/>
<path class="st0" d="M9.5,10h-3C6.2,10,6,9.8,6,9.5v-3C6,6.2,6.2,6,6.5,6h3C9.8,6,10,6.2,10,6.5v3C10,9.8,9.8,10,9.5,10z"/>
<path class="st0" d="M15.5,10h-3C12.2,10,12,9.8,12,9.5v-3C12,6.2,12.2,6,12.5,6h3C15.8,6,16,6.2,16,6.5v3C16,9.8,15.8,10,15.5,10z"
	/>
<path class="st0" d="M3.5,16h-3C0.2,16,0,15.8,0,15.5v-3C0,12.2,0.2,12,0.5,12h3C3.8,12,4,12.2,4,12.5v3C4,15.8,3.8,16,3.5,16z"/>
<path class="st0" d="M15.5,16h-3c-0.3,0-0.5-0.2-0.5-0.5v-3c0-0.3,0.2-0.5,0.5-0.5h3c0.3,0,0.5,0.2,0.5,0.5v3
	C16,15.8,15.8,16,15.5,16z"/>
<path class="st0" d="M9.5,16h-3C6.2,16,6,15.8,6,15.5v-3C6,12.2,6.2,12,6.5,12h3c0.3,0,0.5,0.2,0.5,0.5v3C10,15.8,9.8,16,9.5,16z"/>
</svg>
