<?xml version="1.0" encoding="utf-8"?>
<!-- Generator: Adobe Illustrator 24.0.2, SVG Export Plug-In . SVG Version: 6.00 Build 0)  -->
<svg version="1.1" id="Layer_1" xmlns="http://www.w3.org/2000/svg" xmlns:xlink="http://www.w3.org/1999/xlink" x="0px" y="0px"
	 width="23.3px" height="13.4px" viewBox="0 0 23.3 13.4" style="enable-background:new 0 0 23.3 13.4;" xml:space="preserve">
<style type="text/css">
	.st0{fill:#FFFFFF;}
</style>
<g>
	<path class="st0" d="M15.8,13.4H1c-0.6,0-1-0.5-1-1V1c0-0.6,0.4-1,1-1l14.8,0c0.5,0,1,0.4,1,1v11.4C16.8,13,16.3,13.4,15.8,13.4z"
		/>
	<path class="st0" d="M16.9,7.3l5.5,5.4c0.3,0.3,0.8,0.1,0.8-0.4V1.6c0-0.4-0.5-0.7-0.8-0.4l-5.5,5.4C16.7,6.8,16.7,7.1,16.9,7.3z"
		/>
</g>
<g>
	<rect x="3.4" y="6.1" width="10.1" height="1.7"/>
	<rect x="7.6" y="1.9" width="1.7" height="10.1"/>
</g>
</svg>
